<svg viewBox="0 0 395.52 247.2" height="247.2" width="395.52">
  <g><svg></svg></g>
  <g>
    <svg viewBox="0 0 395.52 247.2" height="247.2" width="395.52">
      <g transform="matrix(1,0,0,1,75.54432,65.32276839237058)">
        <svg
          viewBox="0 0 244.43135999999998 116.55446321525883"
          height="116.55446321525883"
          width="244.43135999999998"
        >
          <g>
            <svg
              viewBox="0 0 244.43135999999998 116.55446321525883"
              height="116.55446321525883"
              width="244.43135999999998"
            >
              <g>
                <svg
                  viewBox="0 0 244.43135999999998 116.55446321525883"
                  height="116.55446321525883"
                  width="244.43135999999998"
                >
                  <g>
                    <svg
                      viewBox="0 0 244.43135999999998 116.55446321525883"
                      height="116.55446321525883"
                      width="244.43135999999998"
                    >
                      <g id="textblocktransform">
                        <svg
                          viewBox="0 0 244.43135999999998 116.55446321525883"
                          height="116.55446321525883"
                          width="244.43135999999998"
                          id="textblock"
                        >
                          <g>
                            <svg
                              viewBox="0 0 244.43135999999998 116.55446321525883"
                              height="116.55446321525883"
                              width="244.43135999999998"
                            >
                              <g transform="matrix(1,0,0,1,0,0)">
                                <svg
                                  width="244.43135999999998"
                                  viewBox="4.150000095367432 -35 73.4000015258789 35"
                                  height="116.55446321525883"
                                  data-palette-color="#00d1c7"
                                >
                                  <path
                                    d="M4.15 0L4.15-35 20.05-35Q25.75-35 30.13-32.83 34.5-30.65 36.93-26.7 39.35-22.75 39.35-17.5L39.35-17.5Q39.35-12.25 36.93-8.3 34.5-4.35 30.13-2.18 25.75 0 20.05 0L20.05 0 4.15 0ZM12.25-6.65L19.65-6.65Q24.9-6.65 28.03-9.58 31.15-12.5 31.15-17.5L31.15-17.5Q31.15-22.5 28.03-25.43 24.9-28.35 19.65-28.35L19.65-28.35 12.25-28.35 12.25-6.65ZM71.15-18.2Q74.15-17.25 75.85-15.03 77.55-12.8 77.55-9.55L77.55-9.55Q77.55-4.95 73.97-2.48 70.4 0 63.55 0L63.55 0 45.45 0 45.45-35 62.55-35Q68.95-35 72.37-32.55 75.8-30.1 75.8-25.9L75.8-25.9Q75.8-23.35 74.57-21.35 73.35-19.35 71.15-18.2L71.15-18.2ZM61.55-28.9L53.5-28.9 53.5-20.65 61.55-20.65Q64.55-20.65 66.1-21.7 67.65-22.75 67.65-24.8L67.65-24.8Q67.65-26.85 66.1-27.88 64.55-28.9 61.55-28.9L61.55-28.9ZM62.95-6.1Q66.15-6.1 67.77-7.15 69.4-8.2 69.4-10.4L69.4-10.4Q69.4-14.75 62.95-14.75L62.95-14.75 53.5-14.75 53.5-6.1 62.95-6.1Z"
                                    opacity="1"
                                    transform="matrix(1,0,0,1,0,0)"
                                    fill="#00d1c7"
                                    class="undefined-text-0"
                                    data-fill-palette-color="primary"
                                    id="text-0"
                                  ></path>
                                </svg>
                              </g>
                            </svg>
                          </g>
                        </svg>
                      </g>
                    </svg>
                  </g>
                </svg>
              </g>
            </svg>
          </g>
        </svg>
      </g>
      <g>
        <path
          d="M245.816 0c68.262 0 123.6 55.338 123.6 123.6 0 68.262-55.338 123.6-123.6 123.6-41.384 0-78.017-20.338-100.45-51.565h6.547c21.634 28.159 55.649 46.309 93.903 46.309 65.36 0 118.344-52.985 118.344-118.344 0-65.36-52.985-118.344-118.344-118.344-38.254 0-72.269 18.15-93.903 46.309l-6.547 0c22.433-31.227 59.066-51.565 100.45-51.565z"
          fill="#00d1c7"
          stroke="transparent"
          data-fill-palette-color="tertiary"
        ></path>
      </g>
    </svg>
  </g>
  <defs></defs>
</svg>
